PathFileType  4	(X/Y/Z) C:\Users\antoi\Documents\MyRepositories\mobilecap\ResultsAnalysis
DataRate	CameraRate	NumFrames	NumMarkers	Units	OrigDataRate	OrigDataStartFrame	OrigNumFrames
100.0	100.0	6	51	mm	100.0	1	170
Frame#	Time	r_knee			r_shank_antsup			r_ankle			r_calc			r_5meta			r_toe			L_knee			L_shank_antsup			L_ankle			L_calc			L_5meta			L_toe			r_sh2			r_sh3			r_sh4			L_sh2			L_sh3			r_thigh1			r_thigh2			r_thigh3			r_thigh4			r_thigh5			L_thigh1			L_thigh2			L_thigh3			L_thigh4			r.ASIS			r.PSIS			L.ASIS			L.PSIS			C7			R_Shoulder			L_Shoulder			R_Sternum			L_Sternum			R_humerus			R_elbow_med			R_elbow_lat			R_forearm			R_wrist_radius			R_wrist_ulna			L_humerus			L_elbow_med			L_elbow_lat			L_forearm			L_wrist_radius			L_wrist_ulna			R_HJC			L_HJC			R_HJC_reg			L_HJC_reg			
		X1	Y1	Z1	X2	Y2	Z2	X3	Y3	Z3	X4	Y4	Z4	X5	Y5	Z5	X6	Y6	Z6	X7	Y7	Z7	X8	Y8	Z8	X9	Y9	Z9	X10	Y10	Z10	X11	Y11	Z11	X12	Y12	Z12	X13	Y13	Z13	X14	Y14	Z14	X15	Y15	Z15	X16	Y16	Z16	X17	Y17	Z17	X18	Y18	Z18	X19	Y19	Z19	X20	Y20	Z20	X21	Y21	Z21	X22	Y22	Z22	X23	Y23	Z23	X24	Y24	Z24	X25	Y25	Z25	X26	Y26	Z26	X27	Y27	Z27	X28	Y28	Z28	X29	Y29	Z29	X30	Y30	Z30	X31	Y31	Z31	X32	Y32	Z32	X33	Y33	Z33	X34	Y34	Z34	X35	Y35	Z35	X36	Y36	Z36	X37	Y37	Z37	X38	Y38	Z38	X39	Y39	Z39	X40	Y40	Z40	X41	Y41	Z41	X42	Y42	Z42	X43	Y43	Z43	X44	Y44	Z44	X45	Y45	Z45	X46	Y46	Z46	X47	Y47	Z47	X48	Y48	Z48	X49	Y49	Z49	X50	Y50	Z50	X51	Y51	Z51	

1	0.00000000	7.39089	482.25308	-66.38623	59.65669	453.64462	-74.26743	109.44011	93.48960	-90.51144	69.10195	46.69186	-141.04625	267.05636	81.32161	-52.14195	284.62928	119.01684	-108.46751	-353.15993	461.58732	-368.27424	-375.53449	372.56739	-376.49587	-587.73903	127.23651	-307.86999	-658.04042	112.24662	-252.46043	-495.66115	33.73355	-322.92312	-446.13098	47.44801	-273.27283	93.50204	344.48554	-87.52678	-0.58240	427.51272	-35.98204	31.48659	317.79204	-33.25131	-444.97059	429.75611	-379.13490	-515.30698	330.40705	-367.11176	-47.37103	773.05194	-135.68139	9.60242	678.78819	-129.15051	9.40904	656.74905	-63.64176	-95.07040	751.63042	-33.44116	-41.51112	653.24149	-27.87212	-207.75806	755.97596	-397.96921	-252.06568	621.29817	-397.90843	-316.22195	787.75156	-382.43718	-356.31547	659.39376	-359.81155	-92.05841	904.35342	-107.91106	-293.46355	947.65989	-150.53844	-127.07438	899.11771	-345.25344	-308.64667	951.92285	-246.52456	-254.11336	1410.48791	-186.62641	-189.04207	1352.93485	-22.57148	-179.94530	1364.54435	-353.36293	-141.37436	1311.74154	-175.77287	-138.23980	1312.05783	-212.35512	-201.63321	1109.07601	46.21670	-263.66996	1025.03335	11.29066	-232.92953	1020.57570	63.41090	-170.49631	890.07922	72.69854	-129.62034	794.52164	50.62385	-165.20127	787.03871	80.58448	-174.69553	1132.71650	-440.42577	-229.80144	1028.49741	-403.13892	-203.40239	1035.12426	-456.05676	-124.27629	912.76596	-470.00045	-76.01695	817.18565	-445.87387	-106.88573	804.97404	-474.79763	-175.58355	826.48380	-131.10525	-217.13449	835.51346	-316.97482	-169.08424	828.63768	-132.76501	-193.80527	835.57902	-289.04899	
2	0.01000000	20.81381	482.12739	-67.00519	73.36159	453.00323	-75.08994	115.12949	92.33723	-90.89460	72.38658	48.80860	-141.26865	271.55419	72.42179	-53.24883	291.16821	109.56238	-109.64347	-343.28838	460.57669	-367.88564	-366.45220	371.55943	-377.12374	-583.94196	130.87671	-309.54219	-654.48153	117.85526	-254.37160	-494.78339	33.65156	-323.26013	-445.43807	46.58345	-273.69469	105.80330	343.55452	-88.32813	12.88953	427.62504	-36.82477	43.49850	317.52776	-33.82318	-434.45298	430.23803	-379.86969	-507.11692	332.56793	-368.64908	-34.25677	772.88983	-135.64447	22.60268	678.52672	-129.51029	22.17489	656.11328	-63.55654	-81.63464	751.25999	-33.49500	-28.23367	652.84759	-28.31518	-196.01490	753.85457	-397.38169	-240.57562	619.30548	-397.68648	-303.96246	785.94866	-382.06498	-344.59707	657.61001	-359.67034	-79.53873	902.72301	-107.59007	-280.80324	946.79476	-150.68196	-114.14065	897.32465	-344.22776	-296.13473	950.35959	-246.70992	-241.41611	1408.33432	-181.26522	-177.28655	1348.36729	-17.44657	-166.11008	1364.30094	-348.26671	-128.53446	1309.35963	-170.88095	-125.45565	1309.93767	-207.93924	-190.52645	1103.74517	48.55135	-252.04332	1020.05128	12.16184	-221.92515	1015.10206	64.59476	-160.14718	884.33510	73.75953	-119.12231	788.91094	51.60519	-155.23183	781.30819	80.77753	-161.52685	1133.19435	-437.59987	-217.66192	1029.02675	-401.87279	-190.92651	1036.01678	-454.35683	-113.01639	913.15782	-469.01009	-66.03233	816.61991	-445.36329	-96.47034	805.07449	-474.79016	-163.32976	825.15419	-130.54234	-204.40942	833.82552	-316.53636	-156.61626	828.26630	-131.65457	-181.48671	834.05702	-287.44781	
3	0.02000000	34.44299	482.28269	-67.52247	87.03351	452.54116	-75.82087	120.43908	91.33738	-91.21007	75.41588	50.80330	-141.44166	275.68658	64.00705	-54.25641	297.18981	100.54715	-110.70655	-332.89980	459.44948	-367.54482	-357.00212	370.55386	-377.73124	-579.86948	134.67310	-311.23163	-650.61328	123.74668	-256.30757	-493.85178	33.63579	-323.60898	-444.67574	45.70905	-274.13370	117.90741	342.70307	-89.02722	26.36435	428.01016	-37.52324	55.30464	317.49781	-34.26392	-423.56968	430.74119	-380.56961	-498.58166	334.82414	-370.05186	-21.31250	773.00110	-135.57560	35.62721	678.67437	-129.75775	35.04218	655.99294	-63.39372	-68.30635	751.20130	-33.47150	-14.73286	652.88108	-28.71563	-184.14098	751.78338	-396.74592	-228.85501	617.32251	-397.42490	-291.66150	784.11494	-381.70057	-332.71860	655.76868	-359.51219	-67.12980	901.31753	-107.20946	-268.27974	946.05824	-150.93022	-101.26012	895.56910	-343.15283	-283.67169	948.89195	-247.01989	-228.61906	1406.29584	-175.90747	-165.43482	1343.89414	-12.34991	-152.22323	1364.10306	-343.17799	-115.65587	1307.05436	-165.98826	-112.57357	1307.92310	-203.45522	-179.25169	1098.51964	50.84758	-240.29629	1015.18395	13.04681	-210.77356	1009.74214	65.76868	-149.67531	878.69468	74.78351	-108.58298	783.37421	52.54753	-145.28575	775.71026	81.01227	-148.37191	1133.74017	-434.78956	-205.48638	1029.64314	-400.57268	-178.39481	1036.98297	-452.64387	-101.74691	913.60429	-468.01800	-55.98669	816.11079	-444.89382	-86.05365	805.24100	-474.79615	-151.19244	824.01531	-129.92175	-191.70474	832.17967	-316.06239	-144.28406	828.02068	-130.53044	-169.16245	832.61122	-285.85859	
4	0.03000000	48.36537	482.90073	-67.84967	100.61677	452.36974	-76.37431	125.08806	90.59861	-91.41600	77.99333	52.58019	-141.53282	279.18701	56.48605	-55.09763	302.29598	92.33041	-111.59719	-321.59335	458.12474	-367.28298	-346.87189	369.54954	-378.30494	-575.27349	138.76476	-312.94435	-646.19264	130.20015	-258.28191	-492.80759	33.75646	-323.98176	-443.75574	44.84536	-274.59950	129.63492	341.99130	-89.53375	39.80019	428.85031	-37.96283	66.71172	317.85822	-34.48761	-412.00271	431.28228	-381.20481	-489.38922	337.23884	-371.23158	-8.65283	773.58174	-135.43348	48.67929	679.51808	-129.79224	48.06972	656.73612	-63.08449	-55.19090	751.66744	-33.30859	-0.89884	653.62634	-29.02624	-172.03568	749.81306	-396.02136	-216.71534	615.36215	-397.09520	-279.29905	782.23021	-381.34157	-320.54092	653.81797	-359.32282	-54.91834	900.32497	-106.71736	-255.99779	945.54777	-151.35116	-88.47648	893.90116	-341.98827	-271.29945	947.60682	-247.53845	-215.64602	1404.47209	-170.56060	-153.40922	1339.60460	-7.31349	-138.24221	1364.00014	-338.10108	-102.71315	1304.89276	-161.09961	-99.53659	1306.09558	-198.86551	-167.67335	1093.50082	53.07195	-228.33292	1010.53960	13.95614	-199.35328	1004.60429	66.92361	-138.97649	873.25970	75.73987	-97.96459	777.98859	53.41405	-135.37151	770.36793	81.31935	-135.23613	1134.42275	-432.00518	-193.25004	1030.42982	-399.21451	-165.76787	1038.09628	-450.90846	-90.45191	914.16199	-467.01904	-45.83499	815.72014	-444.49967	-75.64011	805.54659	-474.82430	-139.25706	823.22320	-129.19710	-179.03581	830.62566	-315.52144	-132.18236	827.99133	-129.38512	-156.82653	831.31791	-284.29454	
5	0.04000000	62.47685	484.00268	-67.92883	114.01127	452.49166	-76.68441	128.94709	90.15770	-91.50961	80.01832	54.08369	-141.53599	281.94040	50.13594	-55.75149	306.27902	85.14124	-112.32758	-309.15245	456.57693	-367.11196	-335.84687	368.54224	-378.84165	-569.95274	143.25833	-314.66517	-641.06179	137.46091	-260.28646	-491.58578	34.09257	-324.38883	-442.57300	44.05324	-275.09031	140.82915	341.44075	-89.78759	53.08437	430.18053	-38.07975	77.55555	318.63758	-34.47645	-399.52453	431.87060	-381.75698	-479.29508	339.82586	-372.16960	3.68736	774.69547	-135.16262	61.72233	681.13489	-129.53428	61.22463	658.41197	-62.57341	-42.39069	752.70795	-32.96881	13.18314	655.13033	-29.19160	-159.65975	747.99722	-395.18242	-204.04818	613.44669	-396.68885	-266.89318	780.29338	-380.96975	-307.97164	651.72370	-359.09150	-42.95464	899.86902	-106.07848	-244.01684	945.31288	-151.94973	-75.82740	892.39197	-340.70999	-259.05713	946.57597	-248.27859	-202.47129	1402.93694	-165.24320	-141.17315	1335.58065	-2.37794	-124.15257	1364.04611	-333.04048	-89.71044	1302.92757	-156.23306	-86.35856	1304.50227	-194.18134	-155.72010	1088.78468	55.19819	-216.10641	1006.21669	14.89551	-187.59418	999.78877	68.05177	-127.98414	868.12968	76.60756	-87.24035	772.83872	54.17184	-125.47166	765.38636	81.70501	-122.12137	1135.30909	-429.25102	-180.95538	1031.46157	-397.79423	-153.04099	1039.42658	-449.15053	-79.11693	914.89122	-466.00597	-35.56533	815.51757	-444.19995	-65.24629	806.07265	-474.87533	-127.56381	822.87547	-128.34154	-166.42059	829.22641	-314.88905	-120.34636	828.21670	-128.22034	-144.48239	830.25295	-282.76870	
6	0.05000000	76.50630	485.44896	-67.74876	127.07879	452.80231	-76.72857	132.03227	89.97726	-91.52366	81.49243	55.29698	-141.46994	283.97516	45.07809	-56.23469	309.12719	79.06637	-112.95956	-295.52419	454.83049	-367.03530	-323.80955	367.52645	-379.34803	-563.74958	148.22563	-316.35533	-635.09891	145.69785	-262.28863	-490.11895	34.73639	-324.83663	-441.03260	43.41595	-275.59388	151.36626	341.02040	-89.78055	66.05777	431.88620	-37.86783	87.73747	319.73468	-34.27325	-386.00235	432.50682	-382.22829	-468.13286	342.55905	-372.90816	15.75800	776.26070	-134.69075	74.68901	683.36958	-128.92761	74.36512	660.79338	-61.81660	-29.98778	754.19799	-32.43633	27.23392	657.19050	-29.14781	-147.03792	746.39292	-394.22145	-190.82738	611.61202	-396.22077	-254.48677	778.32250	-380.55104	-294.96961	649.47879	-358.80836	-31.23716	899.99966	-105.28051	-232.34319	945.35866	-152.66073	-63.34195	891.13327	-339.31165	-246.97828	945.85398	-249.17318	-189.12206	1401.73491	-159.98521	-128.73219	1331.89252	2.41069	-109.96974	1364.29649	-328.00106	-76.67698	1301.19622	-151.41957	-73.11050	1303.16136	-189.45559	-143.38787	1084.45517	57.20917	-203.61766	1002.29755	15.86709	-175.47716	995.38083	69.14784	-116.66422	863.39497	77.37527	-76.38858	768.01175	54.79382	-115.52424	760.84037	82.14052	-109.02212	1136.46045	-426.52443	-168.62901	1032.80288	-396.33340	-140.23971	1041.03735	-447.38192	-67.73212	915.85762	-464.97307	-25.19881	815.57954	-443.99049	-54.89048	806.90506	-474.94153	-116.09751	823.00659	-127.34894	-153.87980	828.05807	-314.14764	-108.74325	828.69073	-127.04349	-132.14228	829.49003	-281.28741	
